<svg xmlns="http://www.w3.org/2000/svg" viewBox="0 0 53.02 45.66"><defs><style>.cls-1{fill:#9b9d9c;}.cls-1,.cls-2{fill-rule:evenodd;}.cls-2{fill:#ee7e1c;}</style></defs><title>2Ресурс 51111</title><g id="Слой_2" data-name="Слой 2"><g id="Слой_1-2" data-name="Слой 1"><polygon class="cls-1" points="14.71 0 14.71 4.32 20.02 4.32 20.02 19.84 6.39 27.71 3.74 23.11 0 25.27 4.81 33.6 4.81 33.6 4.81 33.6 24.33 22.34 24.33 22.34 24.33 22.34 24.33 4.32 24.33 4.31 24.33 0 14.71 0"/><polygon class="cls-2" points="38.31 0 38.31 4.32 33 4.32 33 19.84 46.63 27.7 49.28 23.11 53.02 25.27 48.21 33.6 48.21 33.6 48.2 33.6 28.68 22.34 28.68 22.34 28.68 22.34 28.68 4.32 28.68 4.31 28.68 0 38.31 0"/><polygon class="cls-1" points="40.99 45.66 37.26 43.48 39.92 38.9 26.49 31.09 12.84 38.91 15.48 43.51 11.73 45.66 6.95 37.31 6.95 37.31 6.95 37.31 26.51 26.11 26.51 26.11 26.51 26.11 42.09 35.17 42.1 35.17 45.83 37.34 40.99 45.66"/></g></g></svg>